PathFileType	4	(X/Y/Z)	E:\Qualisys_Data\Carbon_Farble_Plate\Data\Amateur_Runner\S2\T2\S2T2V21_c3d.trc
DataRate	CameraRate	NumFrames	NumMarkers	Units	OrigDataRate	OrigDataStartFrame	OrigNumFrames
200.000000	200.000000	4	39	mm	200.000000	0	313
Frame#	Time	LSHO			RSHO			LICST			RICST			LASIS			LHEEL			RASIS			LTROC			RTROC			SACR			LTH1			LSK4			LTH2			LTH3			RHM5			LSK2			LTH4			RTH1			LTOE			RTH2			RTH3			RTH4			LLEP			RLEP			LSK1			LSK3			RSK1			LHM5			RSK2			LFT1			RSK3			RSK4			LLME			RLME			RTOE			RHEEL			RFT1			RFT2			LFT2			
		X1	Y1	Z1	X2	Y2	Z2	X3	Y3	Z3	X4	Y4	Z4	X5	Y5	Z5	X6	Y6	Z6	X7	Y7	Z7	X8	Y8	Z8	X9	Y9	Z9	X10	Y10	Z10	X11	Y11	Z11	X12	Y12	Z12	X13	Y13	Z13	X14	Y14	Z14	X15	Y15	Z15	X16	Y16	Z16	X17	Y17	Z17	X18	Y18	Z18	X19	Y19	Z19	X20	Y20	Z20	X21	Y21	Z21	X22	Y22	Z22	X23	Y23	Z23	X24	Y24	Z24	X25	Y25	Z25	X26	Y26	Z26	X27	Y27	Z27	X28	Y28	Z28	X29	Y29	Z29	X30	Y30	Z30	X31	Y31	Z31	X32	Y32	Z32	X33	Y33	Z33	X34	Y34	Z34	X35	Y35	Z35	X36	Y36	Z36	X37	Y37	Z37	X38	Y38	Z38	X39	Y39	Z39	

1	0	-3128.762451171875	1527.483032226562	-422.3125305175781	-3170.083984375	1511.861938476562	-130.3749694824219	-3193.391845703125	1055.652954101562	-420.411376953125	-3177.63427734375	1052.1640625	-123.6458358764648	-3147.88720703125	998.8148803710938	-410.4707946777344	-3749.70703125	426.8125610351562	-293.3356628417969	-3122.844970703125	1002.558288574219	-156.2830047607422	-3302.72607421875	962.0846557617188	-415.6737060546875	-3251.0537109375	950.998046875	-102.5961685180664	-3279.46435546875	1099.927490234375	-272.7884826660156	-3286.2041015625	713.9398803710938	-427.4657592773438	-3625.45458984375	511.0401916503906	-389.3941650390625	-3361.527099609375	750.0462646484375	-420.6562194824219	-3330.10888671875	622.1730346679688	-411.7394104003906	-2902.468017578125	160.206787109375	-120.2748107910156	-3543.814697265625	566.9473876953125	-406.6268615722656	-3404.582275390625	660.9424438476562	-398.8985290527344	-3024.910888671875	747.4673461914062	-114.8129348754883	-3756.59814453125	181.7611694335938	-341.5867919921875	-3094.614501953125	714.1666870117188	-111.9099273681641	-2983.89306640625	657.892333984375	-137.1171112060547	-3055.876953125	626.7582397460938	-128.1457977294922	-3404.516357421875	598.9807739257812	-407.0153198242188	-3018.06005859375	596.053955078125	-130.424560546875	-3501.60693359375	501.22265625	-412.1103820800781	-3584.507568359375	445.9984130859375	-401.6273498535156	-2981.721923828125	474.1293334960938	-123.28173828125	-3792.198974609375	240.54541015625	-382.5505065917969	-3063.190185546875	475.9217529296875	-117.2587966918945	-3768.708251953125	412.4322814941406	-264.9649353027344	-2984.0751953125	372.7175598144531	-131.8396453857422	-3065.43603515625	377.8114929199219	-127.2106399536133	-3748.486328125	374.8135681152344	-361.6788024902344	-3023.10888671875	183.7104339599609	-155.2884368896484	-2835.955078125	197.8428192138672	-175.224365234375	-3082.75732421875	153.6829681396484	-216.8909912109375	-3055.0029296875	130.8621520996094	-242.9086608886719	-3073.835693359375	123.5536422729492	-191.0265502929688	-3791.80078125	426.8110046386719	-313.8355102539062
2	0.005	-3107.513427734375	1527.564086914062	-421.6104736328125	-3150.20751953125	1511.226806640625	-129.2087860107422	-3172.900390625	1056.154174804688	-420.6158142089844	-3158.578857421875	1051.083618164062	-124.2577285766602	-3127.349609375	999.3197631835938	-411.0618896484375	-3734.833740234375	439.4940795898438	-292.7709045410156	-3102.853515625	1001.824829101562	-156.0197143554688	-3281.86767578125	961.3842163085938	-416.7506713867188	-3230.912109375	949.300537109375	-103.4334487915039	-3259.009033203125	1099.532348632812	-272.8060913085938	-3263.87890625	713.4710083007812	-427.6832885742188	-3606.04541015625	517.8218383789062	-388.8254699707031	-3339.196533203125	749.176025390625	-421.916015625	-3306.738525390625	620.3357543945312	-412.6824951171875	-2870.575927734375	161.9478454589844	-120.7705001831055	-3522.600341796875	570.5725708007812	-406.3004150390625	-3381.672119140625	659.5010986328125	-399.8077087402344	-3007.667236328125	742.7133178710938	-114.91015625	-3744.189208984375	192.1240234375	-344.68701171875	-3077.109130859375	711.427490234375	-111.3160095214844	-2967.088623046875	652.5676879882812	-136.4074249267578	-3041.06689453125	622.7826538085938	-128.9244689941406	-3381.7900390625	596.999755859375	-406.371826171875	-3002.610595703125	591.1493530273438	-129.8098754882812	-3481.8681640625	503.9380798339844	-412.60888671875	-3566.5009765625	450.7899475097656	-401.1931762695312	-2962.53369140625	470.6571350097656	-123.6453552246094	-3779.772216796875	253.7612152099609	-384.3495178222656	-3043.0478515625	470.0650329589844	-116.2365493774414	-3751.62109375	422.6875610351562	-262.652099609375	-2962.04833984375	369.6838684082031	-132.4692535400391	-3042.17138671875	370.841552734375	-126.7031021118164	-3732.92138671875	385.6920471191406	-360.1865844726562	-2992.490234375	179.8429870605469	-156.4762420654297	-2805.30810546875	202.6260986328125	-175.3887634277344	-3048.62353515625	145.6758422851562	-216.7621612548828	-3021.1162109375	125.7302551269531	-244.2893676757812	-3039.408203125	117.0515975952148	-191.5291900634766	-3772.8505859375	436.8414001464844	-312.1435852050781
3	0.01	-3085.798095703125	1526.223266601562	-420.0583190917969	-3130.458251953125	1510.745483398438	-128.6280364990234	-3152.171142578125	1056.00537109375	-420.9378051757812	-3137.995361328125	1050.03759765625	-124.2044982910156	-3105.86962890625	998.7943115234376	-410.9236755371094	-3715.234375	448.0111999511719	-290.5252990722656	-3082.76416015625	1000.630126953125	-156.8966522216797	-3260.539306640625	960.9325561523438	-418.0400695800781	-3212.309814453125	947.9529418945312	-105.1266860961914	-3238.893310546875	1098.740600585938	-273.1044006347656	-3241.354736328125	712.3287963867188	-428.0881042480469	-3585.47705078125	523.9865112304688	-387.4990539550781	-3316.9404296875	747.8685302734375	-422.9626770019531	-3284.3720703125	620.2859497070312	-413.0229187011719	-2839.208740234375	163.1222534179688	-121.0128555297852	-3501.09375	574.5070190429688	-404.6585388183594	-3359.539794921875	658.4666748046875	-400.96875	-2988.6455078125	738.3080444335938	-113.1625900268555	-3732.096435546875	202.4208221435547	-346.6240844726562	-3059.495361328125	708.0960083007812	-110.6764144897461	-2950.420654296875	646.537353515625	-136.3913726806641	-3026.09521484375	618.747314453125	-129.3661499023438	-3359.394287109375	596.5653076171875	-407.6366271972656	-2986.783935546875	587.7716064453125	-131.1631622314453	-3462.072509765625	505.4109191894531	-413.739990234375	-3548.592529296875	455.2088317871094	-401.5363159179688	-2943.9638671875	467.6810302734375	-124.3454360961914	-3766.207275390625	266.1250915527344	-385.6558532714844	-3023.867919921875	464.2449951171875	-115.7645874023438	-3733.72802734375	430.3004455566406	-260.3825988769531	-2937.3740234375	366.5066833496094	-132.6017608642578	-3018.143798828125	365.8003540039062	-126.3683090209961	-3716.4521484375	395.928466796875	-359.0245361328125	-2961.3505859375	175.1136474609375	-156.4161834716797	-2776.334228515625	206.9251098632812	-176.0767364501953	-3016.393798828125	139.9405059814453	-217.8792724609375	-2988.390869140625	120.9892349243164	-245.233154296875	-3006.822998046875	111.8547134399414	-192.3248596191406	-3754.5224609375	446.5643615722656	-310.6105041503906
4	0.015	-3065.0703125	1525.700805664062	-419.698974609375	-3110.985107421875	1509.618041992188	-128.1132965087891	-3131.866943359375	1055.785400390625	-420.6766357421875	-3117.41162109375	1048.636474609375	-124.3621215820312	-3085.066162109375	998.75927734375	-411.3121032714844	-3693.671142578125	454.8398742675781	-287.4518127441406	-3062.127685546875	999.699462890625	-157.1188201904297	-3239.6240234375	959.7144165039062	-418.9149169921875	-3192.2734375	945.33740234375	-105.7341003417969	-3218.46435546875	1098.122314453125	-273.3599853515625	-3218.27587890625	711.2958984375	-427.8600463867188	-3564.077392578125	529.0174560546875	-386.9024963378906	-3294.400146484375	746.2930908203125	-424.0960083007812	-3261.564697265625	618.9432983398438	-414.2083740234375	-2809.990478515625	164.7154083251953	-121.8332901000977	-3477.188720703125	576.6250610351562	-406.4606018066406	-3336.657470703125	656.7501831054688	-402.1684265136719	-2970.92041015625	733.1442260742188	-112.3108139038086	-3719.3203125	213.5897369384766	-349.11328125	-3042.42822265625	703.7874145507812	-110.0432434082031	-2934.877685546875	640.2628173828125	-135.6641235351562	-3008.469970703125	612.4910888671875	-128.4498138427734	-3336.228271484375	594.979248046875	-408.6273803710938	-2970.197265625	582.8452758789062	-131.4717712402344	-3441.87890625	506.694091796875	-413.9264526367188	-3531.3046875	460.2057495117188	-401.1368408203125	-2924.04052734375	465.2420349121094	-124.8615036010742	-3751.6533203125	277.7091064453125	-386.6339416503906	-3003.701904296875	458.0107421875	-114.8496551513672	-3714.693603515625	439.6711730957031	-259.17236328125	-2915.431640625	364.0955200195312	-133.9264221191406	-2995.21240234375	360.3558959960938	-126.6073608398438	-3699.275634765625	406.5029296875	-358.0739440917969	-2933.030029296875	172.5020599365234	-157.1755218505859	-2748.772216796875	211.0294647216797	-176.5402984619141	-2985.721923828125	134.7305908203125	-218.6055908203125	-2956.858154296875	116.5939254760742	-245.6895599365234	-2975.511962890625	106.8282775878906	-193.1331481933594	-3734.699462890625	456.4237060546875	-308.6930236816406
